<mxfile host="app.diagrams.net" agent="Mozilla/5.0 (Windows NT 10.0; Win64; x64) AppleWebKit/537.36 (KHTML, like Gecko) Chrome/129.0.0.0 Safari/537.36 Edg/129.0.0.0" version="24.7.17">
  <diagram name="Strona-1" id="pGK3o2bpQCqVOJ1KOY3B">
    <mxGraphModel dx="949" dy="654" grid="1" gridSize="10" guides="1" tooltips="1" connect="1" arrows="1" fold="1" page="1" pageScale="1" pageWidth="827" pageHeight="1169" math="0" shadow="0">
      <root>
        <mxCell id="0" />
        <mxCell id="1" parent="0" />
        <mxCell id="wYG8iV0DFQpDiHs3QT-A-19" value="" style="rounded=0;whiteSpace=wrap;html=1;" vertex="1" parent="1">
          <mxGeometry x="40" y="160" width="120" height="160" as="geometry" />
        </mxCell>
        <mxCell id="wYG8iV0DFQpDiHs3QT-A-22" value="" style="rounded=0;whiteSpace=wrap;html=1;" vertex="1" parent="1">
          <mxGeometry x="360" y="160" width="120" height="160" as="geometry" />
        </mxCell>
        <mxCell id="wYG8iV0DFQpDiHs3QT-A-26" value="" style="rounded=0;whiteSpace=wrap;html=1;" vertex="1" parent="1">
          <mxGeometry x="600" y="160" width="120" height="160" as="geometry" />
        </mxCell>
        <mxCell id="wYG8iV0DFQpDiHs3QT-A-47" value="" style="shape=datastore;whiteSpace=wrap;html=1;" vertex="1" parent="1">
          <mxGeometry x="385" y="200" width="70" height="80" as="geometry" />
        </mxCell>
        <mxCell id="wYG8iV0DFQpDiHs3QT-A-49" value="" style="rounded=0;whiteSpace=wrap;html=1;shadow=0;glass=0;" vertex="1" parent="1">
          <mxGeometry x="200" y="160" width="120" height="160" as="geometry" />
        </mxCell>
        <mxCell id="wYG8iV0DFQpDiHs3QT-A-54" value="" style="endArrow=classic;html=1;rounded=0;strokeWidth=2;exitX=1;exitY=0.5;exitDx=0;exitDy=0;" edge="1" parent="1" source="wYG8iV0DFQpDiHs3QT-A-19" target="wYG8iV0DFQpDiHs3QT-A-49">
          <mxGeometry width="50" height="50" relative="1" as="geometry">
            <mxPoint x="120" y="360" as="sourcePoint" />
            <mxPoint x="240" y="360" as="targetPoint" />
          </mxGeometry>
        </mxCell>
        <mxCell id="wYG8iV0DFQpDiHs3QT-A-55" value="&lt;font style=&quot;font-size: 15px;&quot;&gt;&lt;b&gt;git add&lt;/b&gt;&lt;/font&gt;" style="edgeLabel;html=1;align=center;verticalAlign=middle;resizable=0;points=[];" vertex="1" connectable="0" parent="wYG8iV0DFQpDiHs3QT-A-54">
          <mxGeometry x="0.0917" y="1" relative="1" as="geometry">
            <mxPoint x="-4" y="111" as="offset" />
          </mxGeometry>
        </mxCell>
        <mxCell id="wYG8iV0DFQpDiHs3QT-A-56" value="" style="shape=datastore;whiteSpace=wrap;html=1;" vertex="1" parent="1">
          <mxGeometry x="625" y="200" width="70" height="80" as="geometry" />
        </mxCell>
        <mxCell id="wYG8iV0DFQpDiHs3QT-A-57" value="" style="endArrow=classic;html=1;rounded=0;strokeWidth=2;entryX=0;entryY=0.5;entryDx=0;entryDy=0;exitX=1;exitY=0.5;exitDx=0;exitDy=0;" edge="1" parent="1" source="wYG8iV0DFQpDiHs3QT-A-49" target="wYG8iV0DFQpDiHs3QT-A-22">
          <mxGeometry width="50" height="50" relative="1" as="geometry">
            <mxPoint x="280" y="360" as="sourcePoint" />
            <mxPoint x="400" y="360" as="targetPoint" />
          </mxGeometry>
        </mxCell>
        <mxCell id="wYG8iV0DFQpDiHs3QT-A-58" value="&lt;font style=&quot;font-size: 15px;&quot;&gt;&lt;b&gt;git commit&lt;/b&gt;&lt;/font&gt;" style="edgeLabel;html=1;align=center;verticalAlign=middle;resizable=0;points=[];" vertex="1" connectable="0" parent="wYG8iV0DFQpDiHs3QT-A-57">
          <mxGeometry x="0.0917" y="1" relative="1" as="geometry">
            <mxPoint x="-4" y="111" as="offset" />
          </mxGeometry>
        </mxCell>
        <mxCell id="wYG8iV0DFQpDiHs3QT-A-59" value="" style="endArrow=classic;html=1;rounded=0;strokeWidth=2;exitX=1;exitY=0.25;exitDx=0;exitDy=0;entryX=0;entryY=0.25;entryDx=0;entryDy=0;" edge="1" parent="1" source="wYG8iV0DFQpDiHs3QT-A-22" target="wYG8iV0DFQpDiHs3QT-A-26">
          <mxGeometry width="50" height="50" relative="1" as="geometry">
            <mxPoint x="440" y="360" as="sourcePoint" />
            <mxPoint x="640" y="360" as="targetPoint" />
          </mxGeometry>
        </mxCell>
        <mxCell id="wYG8iV0DFQpDiHs3QT-A-60" value="&lt;font style=&quot;font-size: 15px;&quot;&gt;&lt;b&gt;git push&lt;/b&gt;&lt;/font&gt;" style="edgeLabel;html=1;align=center;verticalAlign=middle;resizable=0;points=[];" vertex="1" connectable="0" parent="wYG8iV0DFQpDiHs3QT-A-59">
          <mxGeometry x="0.0917" y="1" relative="1" as="geometry">
            <mxPoint x="-4" y="11" as="offset" />
          </mxGeometry>
        </mxCell>
        <mxCell id="wYG8iV0DFQpDiHs3QT-A-70" value="Working Directory" style="text;strokeColor=none;fillColor=none;align=left;verticalAlign=middle;spacingLeft=4;spacingRight=4;overflow=hidden;points=[[0,0.5],[1,0.5]];portConstraint=eastwest;rotatable=0;whiteSpace=wrap;html=1;shadow=0;rounded=0;glass=0;fontStyle=1;fontSize=12;" vertex="1" parent="1">
          <mxGeometry x="40" y="130" width="140" height="30" as="geometry" />
        </mxCell>
        <mxCell id="wYG8iV0DFQpDiHs3QT-A-71" value="Staging Area/Index" style="text;strokeColor=none;fillColor=none;align=left;verticalAlign=middle;spacingLeft=4;spacingRight=4;overflow=hidden;points=[[0,0.5],[1,0.5]];portConstraint=eastwest;rotatable=0;whiteSpace=wrap;html=1;shadow=0;rounded=0;glass=0;fontStyle=1" vertex="1" parent="1">
          <mxGeometry x="200" y="130" width="120" height="30" as="geometry" />
        </mxCell>
        <mxCell id="wYG8iV0DFQpDiHs3QT-A-72" value="Local Repository" style="text;strokeColor=none;fillColor=none;align=left;verticalAlign=middle;spacingLeft=4;spacingRight=4;overflow=hidden;points=[[0,0.5],[1,0.5]];portConstraint=eastwest;rotatable=0;whiteSpace=wrap;html=1;shadow=0;rounded=0;glass=0;fontStyle=1" vertex="1" parent="1">
          <mxGeometry x="360" y="130" width="120" height="30" as="geometry" />
        </mxCell>
        <mxCell id="wYG8iV0DFQpDiHs3QT-A-73" value="Remote Repository" style="text;strokeColor=none;fillColor=none;align=left;verticalAlign=middle;spacingLeft=4;spacingRight=4;overflow=hidden;points=[[0,0.5],[1,0.5]];portConstraint=eastwest;rotatable=0;whiteSpace=wrap;html=1;shadow=0;rounded=0;glass=0;fontStyle=1" vertex="1" parent="1">
          <mxGeometry x="600" y="130" width="130" height="30" as="geometry" />
        </mxCell>
        <mxCell id="wYG8iV0DFQpDiHs3QT-A-74" value="" style="endArrow=none;html=1;rounded=0;strokeWidth=2;startArrow=classic;startFill=1;endFill=0;entryX=0;entryY=0.75;entryDx=0;entryDy=0;exitX=1;exitY=0.75;exitDx=0;exitDy=0;" edge="1" parent="1" source="wYG8iV0DFQpDiHs3QT-A-22" target="wYG8iV0DFQpDiHs3QT-A-26">
          <mxGeometry width="50" height="50" relative="1" as="geometry">
            <mxPoint x="440" y="400" as="sourcePoint" />
            <mxPoint x="640" y="400" as="targetPoint" />
          </mxGeometry>
        </mxCell>
        <mxCell id="wYG8iV0DFQpDiHs3QT-A-75" value="&lt;font style=&quot;font-size: 15px;&quot;&gt;&lt;b&gt;git pull&lt;/b&gt;&lt;/font&gt;" style="edgeLabel;html=1;align=center;verticalAlign=middle;resizable=0;points=[];" vertex="1" connectable="0" parent="wYG8iV0DFQpDiHs3QT-A-74">
          <mxGeometry x="0.0917" y="1" relative="1" as="geometry">
            <mxPoint x="-4" y="11" as="offset" />
          </mxGeometry>
        </mxCell>
        <mxCell id="wYG8iV0DFQpDiHs3QT-A-82" value="TXT" style="shape=note;whiteSpace=wrap;html=1;backgroundOutline=1;darkOpacity=0.05;size=8;" vertex="1" parent="1">
          <mxGeometry x="60" y="190" width="30" height="40" as="geometry" />
        </mxCell>
        <mxCell id="wYG8iV0DFQpDiHs3QT-A-83" value="PY" style="shape=note;whiteSpace=wrap;html=1;backgroundOutline=1;darkOpacity=0.05;size=9;" vertex="1" parent="1">
          <mxGeometry x="110" y="190" width="30" height="40" as="geometry" />
        </mxCell>
        <mxCell id="wYG8iV0DFQpDiHs3QT-A-85" value="CSS" style="shape=note;whiteSpace=wrap;html=1;backgroundOutline=1;darkOpacity=0.05;size=8;" vertex="1" parent="1">
          <mxGeometry x="60" y="260" width="30" height="40" as="geometry" />
        </mxCell>
        <mxCell id="wYG8iV0DFQpDiHs3QT-A-86" value="CSS" style="shape=note;whiteSpace=wrap;html=1;backgroundOutline=1;darkOpacity=0.05;size=9;" vertex="1" parent="1">
          <mxGeometry x="220" y="260" width="30" height="40" as="geometry" />
        </mxCell>
        <mxCell id="wYG8iV0DFQpDiHs3QT-A-87" value="TXT" style="shape=note;whiteSpace=wrap;html=1;backgroundOutline=1;darkOpacity=0.05;size=9;" vertex="1" parent="1">
          <mxGeometry x="220" y="190" width="30" height="40" as="geometry" />
        </mxCell>
        <mxCell id="wYG8iV0DFQpDiHs3QT-A-88" value="PY" style="shape=note;whiteSpace=wrap;html=1;backgroundOutline=1;darkOpacity=0.05;size=9;" vertex="1" parent="1">
          <mxGeometry x="270" y="190" width="30" height="40" as="geometry" />
        </mxCell>
        <mxCell id="wYG8iV0DFQpDiHs3QT-A-94" value="" style="shape=curlyBracket;whiteSpace=wrap;html=1;rounded=1;labelPosition=left;verticalLabelPosition=middle;align=right;verticalAlign=middle;rotation=90;" vertex="1" parent="1">
          <mxGeometry x="250" y="-120" width="20" height="440" as="geometry" />
        </mxCell>
        <mxCell id="wYG8iV0DFQpDiHs3QT-A-96" value="" style="shape=curlyBracket;whiteSpace=wrap;html=1;rounded=1;labelPosition=left;verticalLabelPosition=middle;align=right;verticalAlign=middle;rotation=90;" vertex="1" parent="1">
          <mxGeometry x="650" y="40" width="20" height="120" as="geometry" />
        </mxCell>
        <mxCell id="wYG8iV0DFQpDiHs3QT-A-97" value="&lt;b&gt;&lt;font style=&quot;font-size: 15px;&quot;&gt;LOCAL (PERSONAL COMPUTER)&lt;/font&gt;&lt;/b&gt;" style="text;html=1;align=center;verticalAlign=middle;whiteSpace=wrap;rounded=0;" vertex="1" parent="1">
          <mxGeometry x="40" y="60" width="440" height="30" as="geometry" />
        </mxCell>
        <mxCell id="wYG8iV0DFQpDiHs3QT-A-98" value="&lt;b&gt;&lt;font style=&quot;font-size: 15px;&quot;&gt;INTERNET&lt;/font&gt;&lt;/b&gt;" style="text;html=1;align=center;verticalAlign=middle;whiteSpace=wrap;rounded=0;" vertex="1" parent="1">
          <mxGeometry x="600" y="60" width="120" height="30" as="geometry" />
        </mxCell>
      </root>
    </mxGraphModel>
  </diagram>
</mxfile>
